<svg alt="OpenMage LTS Version: 20.11.0" version="1.1" id="magentologo" xmlns="http://www.w3.org/2000/svg" xmlns:xlink="http://www.w3.org/1999/xlink" x="0px" y="0px" width="30px" height="40px" viewBox="0 0 20 40" enable-background="new 0 0 20 40" xml:space="preserve" class="v-middle">
      <path fill="#FB0E70" d="M12.9,23.4V30H7.5v-6.3c0-1,0.3-1.8,0.8-2.3c0.5-0.5,1.2-0.8,2-0.8c0.8,0,1.5,0.2,1.9,0.7 C12.7,21.8,12.9,22.5,12.9,23.4z M3.8,21.3c-0.5-0.5-1.1-0.7-1.9-0.7c-0.8,0-1.4,0.2-1.9,0.7V30h4.5v-6.6 C4.5,22.5,4.3,21.8,3.8,21.3z M16.2,10H0v9.1c0.2-0.2,0.4-0.4,0.6-0.5C1.3,18.2,2.1,18,3,18c1,0,1.8,0.2,2.5,0.7 c0.7,0.5,1.2,1.1,1.6,2c0.4-0.8,0.9-1.5,1.7-1.9c0.7-0.5,1.6-0.7,2.5-0.7c1.4,0,2.6,0.4,3.4,1.3c0.8,0.9,1.3,2.2,1.3,3.8V30H20V13.8 C20,11.7,18.3,10,16.2,10z"></path>
  </svg>